<?xml version="1.0" encoding="UTF-8" standalone="no"?>
<svg
   xmlns:dc="http://purl.org/dc/elements/1.1/"
   xmlns:cc="http://creativecommons.org/ns#"
   xmlns:rdf="http://www.w3.org/1999/02/22-rdf-syntax-ns#"
   xmlns:svg="http://www.w3.org/2000/svg"
   xmlns="http://www.w3.org/2000/svg"
   xmlns:sodipodi="http://sodipodi.sourceforge.net/DTD/sodipodi-0.dtd"
   xmlns:inkscape="http://www.inkscape.org/namespaces/inkscape"
   width="100mm"
   height="100mm"
   viewBox="0 0 100 100"
   version="1.1"
   id="svg8"
   inkscape:version="1.0.2 (e86c870879, 2021-01-15, custom)"
   sodipodi:docname="bezier_svg_2.svg">
  <defs
     id="defs2" />
  <sodipodi:namedview
     id="base"
     pagecolor="#ffffff"
     bordercolor="#666666"
     borderopacity="1.0"
     inkscape:pageopacity="0.0"
     inkscape:pageshadow="2"
     inkscape:zoom="0.98994949"
     inkscape:cx="204.18419"
     inkscape:cy="172.11163"
     inkscape:document-units="mm"
     inkscape:current-layer="layer1"
     inkscape:document-rotation="0"
     showgrid="false"
     inkscape:window-width="1268"
     inkscape:window-height="680"
     inkscape:window-x="0"
     inkscape:window-y="0"
     inkscape:window-maximized="0" />
  <metadata
     id="metadata5">
    <rdf:RDF>
      <cc:Work
         rdf:about="">
        <dc:format>image/svg+xml</dc:format>
        <dc:type
           rdf:resource="http://purl.org/dc/dcmitype/StillImage" />
        <dc:title></dc:title>
      </cc:Work>
    </rdf:RDF>
  </metadata>
  <g
     inkscape:label="Calque 1"
     inkscape:groupmode="layer"
     id="layer1">
    <path
       style="fill:none;stroke:#000000;stroke-width:0.264583px;stroke-linecap:butt;stroke-linejoin:miter;stroke-opacity:1"
       d="m 13.898015,48.910324 c 0.801809,11.225318 6.414469,20.579752 9.621703,22.985177 3.207233,2.405427 16.837979,5.345393 21.9161,5.078121 5.078122,-0.267269 19.243408,-2.138156 21.916102,-8.285355 2.672696,-6.147197 6.68174,-24.054255 6.414468,-26.459683 -0.267269,-2.405425 -9.888971,-7.750815 -13.363474,-7.750815 -3.474506,0 -9.888974,1.069078 -9.888974,3.207234 0,2.138156 3.741774,5.612659 6.414468,4.81085 2.672697,-0.801806 5.078121,-8.018084 7.216278,-6.949006 2.138156,1.069078 9.087164,3.207234 9.354433,5.078122 0.267269,1.870884 3.474503,-6.1472 1.870887,-9.888974 C 73.766388,26.994223 73.23185,20.579753 67.88646,17.639789 62.54107,14.699824 57.462948,10.423511 42.763125,11.22532 28.063301,12.027129 22.45064,15.768902 20.312484,18.976136 c -2.138156,3.207234 -6.414469,14.432555 -6.414469,17.37252 0,2.939963 -1.336347,6.949006 0.534539,6.949006 1.870887,0 6.681738,-5.34539 9.354434,-5.879928 2.672694,-0.53454 10.690781,-0.267271 10.690781,1.870885 0,2.138156 10.690781,8.552627 10.690781,10.690783 0,2.138156 -1.870888,2.672694 -3.741775,2.138156 -1.870885,-0.53454 -7.216275,7.750815 -2.672694,7.750815 4.543581,0 13.096206,-1.069078 14.699824,-2.138156 1.603616,-1.069078 4.009043,1.336347 1.870887,2.939966 -2.138156,1.603615 -8.552624,3.207234 -13.363477,2.405425 -4.810852,-0.80181 -8.552624,-0.534538 -7.750815,-2.138157 0.801807,-1.603615 6.681737,-9.087164 5.879928,-10.156242 -0.801809,-1.069078 -2.939965,-12.294397 -4.81085,-9.888972 -1.870887,2.405425 -5.87993,4.543581 -8.552627,3.741775 -2.672694,-0.801809 -3.207233,-6.949009 -6.414467,-4.810853 -3.207234,2.138156 -7.750816,3.474503 -6.147199,7.216278 C 15.768902,50.781209 8.2853553,40.624969 9.3544333,34.477769 10.423511,28.33057 13.096207,14.967093 18.174328,12.294398 23.252448,9.621703 33.943229,5.8799295 38.219541,5.6126599 42.495853,5.3453905 53.186636,3.2072344 60.135642,8.0180856 c 6.949009,4.8108514 9.621703,4.2763124 12.294399,8.5526254 2.672697,4.276312 5.078122,11.225318 3.741775,16.036171 -1.33635,4.810852 -0.534541,7.216277 -4.810853,6.147199 -4.276312,-1.069078 -7.216277,-4.543581 -11.49259,-4.009043 -4.276312,0.53454 -5.34539,2.405425 -4.009043,3.741774 1.336347,1.336347 -1.870887,-3.474505 3.474506,-3.207234 5.34539,0.267269 14.165283,3.207234 13.363474,6.949006 -0.801809,3.741775 -3.741772,2.138156 -8.018084,5.879931 -4.276312,3.741772 -8.552627,18.708867 -8.819896,20.847023 -0.267269,2.138156 1.603618,3.741772 -1.870887,5.879928 -3.474503,2.138156 -20.045214,6.1472 -21.114292,-0.267269 C 31.805073,68.153729 31.537804,56.928408 29.399648,53.988443 27.261492,51.04848 16.036172,48.910324 14.165285,46.237628 12.294398,43.564931 8.2853553,36.348656 7.7508163,38.219541 7.2162772,40.090428 1.8708867,39.55589 6.9490076,48.643053 c 5.0781214,9.087164 6.4144684,9.888973 6.6817384,6.414468 0.267269,-3.474503 0.267269,-6.147197 0.267269,-6.147197 z"
       id="path833" />
  </g>
</svg>
